<svg width="55" height="57" viewBox="0 0 55 57" fill="none" xmlns="http://www.w3.org/2000/svg">
<rect y="1.99976" width="55" height="55" fill="white"/>
<path d="M21.844 35V32.984H22.228C22.964 32.984 23.62 32.904 24.196 32.744C24.804 32.584 25.284 32.264 25.636 31.784C25.988 31.272 26.164 30.52 26.164 29.528V14.552C26.164 13.592 25.988 12.888 25.636 12.44C25.284 11.96 24.82 11.656 24.244 11.528C23.668 11.368 23.028 11.288 22.324 11.288H22.084V9.272H29.86L30.484 13.16H30.724C31.396 11.944 32.1 11.032 32.836 10.424C33.604 9.784 34.436 9.352 35.332 9.128C36.228 8.904 37.188 8.792 38.212 8.792C40.74 8.792 42.708 9.544 44.116 11.048C45.556 12.52 46.276 14.904 46.276 18.2V29.528C46.276 30.52 46.42 31.272 46.708 31.784C47.028 32.264 47.46 32.584 48.004 32.744C48.548 32.904 49.172 32.984 49.876 32.984H50.116V35H41.764V18.44C41.764 16.36 41.364 14.744 40.564 13.592C39.796 12.44 38.436 11.864 36.484 11.864C35.044 11.864 33.892 12.232 33.028 12.968C32.196 13.672 31.588 14.616 31.204 15.8C30.852 16.984 30.676 18.264 30.676 19.64V29.768C30.676 30.696 30.852 31.4 31.204 31.88C31.556 32.328 32.02 32.632 32.596 32.792C33.172 32.92 33.812 32.984 34.516 32.984H34.756V35H21.844Z" fill="#191A1B"/>
<path d="M1.844 55.1665V53.1505H2.228C2.964 53.1505 3.62 53.0705 4.196 52.9105C4.804 52.7505 5.284 52.4305 5.636 51.9505C5.988 51.4385 6.164 50.6865 6.164 49.6945V34.7185C6.164 33.7585 5.988 33.0545 5.636 32.6065C5.284 32.1265 4.82 31.8225 4.244 31.6945C3.668 31.5345 3.028 31.4545 2.324 31.4545H2.084V29.4385H9.86L10.484 33.3265H10.724C11.396 32.1105 12.1 31.1985 12.836 30.5905C13.604 29.9505 14.436 29.5185 15.332 29.2945C16.228 29.0705 17.188 28.9585 18.212 28.9585C20.74 28.9585 22.708 29.7105 24.116 31.2145C25.556 32.6865 26.276 35.0705 26.276 38.3665V49.6945C26.276 50.6865 26.42 51.4385 26.708 51.9505C27.028 52.4305 27.46 52.7505 28.004 52.9105C28.548 53.0705 29.172 53.1505 29.876 53.1505H30.116V55.1665H21.764V38.6065C21.764 36.5265 21.364 34.9105 20.564 33.7585C19.796 32.6065 18.436 32.0305 16.484 32.0305C15.044 32.0305 13.892 32.3985 13.028 33.1345C12.196 33.8385 11.588 34.7825 11.204 35.9665C10.852 37.1505 10.676 38.4305 10.676 39.8065V49.9345C10.676 50.8625 10.852 51.5665 11.204 52.0465C11.556 52.4945 12.02 52.7985 12.596 52.9585C13.172 53.0865 13.812 53.1505 14.516 53.1505H14.756V55.1665H1.844Z" fill="#191A1B"/>
</svg>
